<svg width="163" height="174" viewBox="0 0 163 174" fill="none" xmlns="http://www.w3.org/2000/svg">
<g filter="url(#filter0_d_8_123)">
<mask id="path-1-outside-1_8_123" maskUnits="userSpaceOnUse" x="-4" y="-4" width="171" height="182" fill="black">
<rect fill="white" x="-4" y="-4" width="171" height="182"/>
<path d="M161.624 105.729L162.624 124.729C162.401 130.779 160.036 133.42 154.624 137.729C154.624 137.729 100.124 168.229 92.1236 172.229C84.1235 176.228 61.0117 170.36 61.1237 165.229V88.2288C60.9194 80.2427 67.1547 72.3718 73.1237 69.7288L111.124 47.7287C113.627 45.6065 116.031 44.013 112.624 41.2286L85.6237 25.7287C84.2564 24.9104 82.9903 24.6129 81.6237 25.2287L39.6237 49.7287C30.9813 53.3618 26.3882 61.8871 27.1237 73.2287V149.729L10.6236 139.729C2.31202 135.754 0.711856 131.448 0.123564 122.229V55.2287C-0.595028 46.837 1.68192 42.8926 10.6236 37.2287L70.6236 3.72871C80.3259 -1.47523 84.9139 -1.00503 92.1236 3.72871L153.124 38.2287C158.907 42.1061 160.624 44.1931 161.124 47.7287V66.2286C159.856 70.3606 158.272 71.5407 155.124 73.2286L106.124 100.229C104.158 101.395 103.834 104.44 104.124 106.729V135.229C104.258 138.438 105.219 139.305 108.624 137.229L138.124 120.229L161.624 105.729Z"/>
</mask>
<path d="M161.624 105.729L162.624 124.729C162.401 130.779 160.036 133.42 154.624 137.729C154.624 137.729 100.124 168.229 92.1236 172.229C84.1235 176.228 61.0117 170.36 61.1237 165.229V88.2288C60.9194 80.2427 67.1547 72.3718 73.1237 69.7288L111.124 47.7287C113.627 45.6065 116.031 44.013 112.624 41.2286L85.6237 25.7287C84.2564 24.9104 82.9903 24.6129 81.6237 25.2287L39.6237 49.7287C30.9813 53.3618 26.3882 61.8871 27.1237 73.2287V149.729L10.6236 139.729C2.31202 135.754 0.711856 131.448 0.123564 122.229V55.2287C-0.595028 46.837 1.68192 42.8926 10.6236 37.2287L70.6236 3.72871C80.3259 -1.47523 84.9139 -1.00503 92.1236 3.72871L153.124 38.2287C158.907 42.1061 160.624 44.1931 161.124 47.7287V66.2286C159.856 70.3606 158.272 71.5407 155.124 73.2286L106.124 100.229C104.158 101.395 103.834 104.44 104.124 106.729V135.229C104.258 138.438 105.219 139.305 108.624 137.229L138.124 120.229L161.624 105.729Z" fill="white"/>
<g clip-path="url(#paint0_diamond_8_123_clip_path)" data-figma-skip-parse="true" mask="url(#path-1-outside-1_8_123)"><g transform="matrix(0 0.0867758 -0.0813118 0 81.3118 86.7758)"><rect x="0" y="0" width="1046.1" height="1049.19" fill="url(#paint0_diamond_8_123)" opacity="1" shape-rendering="crispEdges"/><rect x="0" y="0" width="1046.1" height="1049.19" transform="scale(1 -1)" fill="url(#paint0_diamond_8_123)" opacity="1" shape-rendering="crispEdges"/><rect x="0" y="0" width="1046.1" height="1049.19" transform="scale(-1 1)" fill="url(#paint0_diamond_8_123)" opacity="1" shape-rendering="crispEdges"/><rect x="0" y="0" width="1046.1" height="1049.19" transform="scale(-1)" fill="url(#paint0_diamond_8_123)" opacity="1" shape-rendering="crispEdges"/></g></g><path d="M161.624 105.729L165.618 105.518L165.264 98.7826L159.523 102.325L161.624 105.729ZM162.624 124.729L166.621 124.876L166.627 124.697L166.618 124.518L162.624 124.729ZM154.624 137.729L156.577 141.219L156.861 141.061L157.115 140.858L154.624 137.729ZM61.1237 165.229L65.1227 165.316L65.1237 165.272V165.229H61.1237ZM61.1237 88.2288H65.1237V88.1776L65.1224 88.1265L61.1237 88.2288ZM73.1237 69.7288L74.7432 73.3862L74.9408 73.2987L75.1278 73.1905L73.1237 69.7288ZM111.124 47.7287L113.128 51.1904L113.438 51.0111L113.71 50.7797L111.124 47.7287ZM112.624 41.2286L115.155 38.1313L114.9 37.9233L114.615 37.7596L112.624 41.2286ZM85.6237 25.7287L83.5694 29.1609L83.6006 29.1796L83.6322 29.1977L85.6237 25.7287ZM81.6237 25.2287L79.9803 21.5819L79.7892 21.668L79.6082 21.7736L81.6237 25.2287ZM39.6237 49.7287L41.1738 53.4161L41.414 53.3151L41.6391 53.1838L39.6237 49.7287ZM27.1237 73.2287H31.1237V73.0992L31.1153 72.9699L27.1237 73.2287ZM27.1237 149.729L25.0505 153.15L31.1237 156.83V149.729H27.1237ZM10.6236 139.729L12.6968 136.308L12.5276 136.205L12.3492 136.12L10.6236 139.729ZM0.123564 122.229H-3.87644V122.356L-3.86832 122.483L0.123564 122.229ZM0.123564 55.2287H4.12356V55.0578L4.10898 54.8874L0.123564 55.2287ZM10.6236 37.2287L8.67358 33.7362L8.57678 33.7903L8.48312 33.8496L10.6236 37.2287ZM70.6236 3.72871L68.7329 0.203737L68.7031 0.219724L68.6736 0.236211L70.6236 3.72871ZM92.1236 3.72871L89.9282 7.07239L90.039 7.14516L90.1544 7.21043L92.1236 3.72871ZM153.124 38.2287L155.351 34.9063L155.225 34.8218L155.093 34.747L153.124 38.2287ZM161.124 47.7287H165.124V47.4473L165.084 47.1686L161.124 47.7287ZM161.124 66.2286L164.948 67.4018L165.124 66.8284V66.2286H161.124ZM155.124 73.2286L153.233 69.7034L153.213 69.7142L153.193 69.7253L155.124 73.2286ZM106.124 100.229L104.193 96.7252L104.137 96.7559L104.083 96.7883L106.124 100.229ZM104.124 106.729H108.124V106.476L108.092 106.226L104.124 106.729ZM104.124 135.229H100.124V135.313L100.127 135.396L104.124 135.229ZM108.624 137.229L106.626 133.763L106.583 133.788L106.541 133.814L108.624 137.229ZM138.124 120.229L140.121 123.694L140.173 123.664L140.224 123.633L138.124 120.229ZM161.624 105.729L157.629 105.939L158.629 124.939L162.624 124.729L166.618 124.518L165.618 105.518L161.624 105.729ZM162.624 124.729L158.626 124.582C158.536 127.041 158.04 128.458 157.235 129.672C156.322 131.051 154.832 132.45 152.132 134.599L154.624 137.729L157.115 140.858C159.827 138.699 162.226 136.623 163.904 134.091C165.691 131.395 166.489 128.467 166.621 124.876L162.624 124.729ZM154.624 137.729C152.67 134.238 152.67 134.238 152.67 134.238C152.669 134.239 152.669 134.239 152.668 134.24C152.666 134.24 152.664 134.242 152.66 134.244C152.654 134.247 152.644 134.253 152.631 134.26C152.605 134.275 152.566 134.297 152.514 134.326C152.411 134.383 152.257 134.469 152.057 134.581C151.656 134.805 151.067 135.135 150.314 135.556C148.809 136.397 146.65 137.604 144.033 139.064C138.8 141.985 131.74 145.921 124.431 149.982C109.75 158.139 94.234 166.702 90.3348 168.651L92.1236 172.229L93.9123 175.806C98.0132 173.756 113.748 165.069 128.316 156.975C135.632 152.911 142.697 148.972 147.933 146.05C150.551 144.588 152.712 143.381 154.218 142.539C154.971 142.117 155.561 141.788 155.962 141.563C156.163 141.451 156.317 141.365 156.42 141.307C156.472 141.278 156.511 141.256 156.537 141.242C156.55 141.234 156.56 141.229 156.567 141.225C156.57 141.223 156.573 141.222 156.575 141.221C156.575 141.22 156.576 141.22 156.576 141.22C156.577 141.219 156.577 141.219 154.624 137.729ZM61.1237 165.229H65.1237V88.2288H61.1237H57.1237V165.229H61.1237ZM61.1237 88.2288L65.1224 88.1265C65.0472 85.1872 66.1692 82.0405 68.0987 79.2502C70.038 76.4457 72.5485 74.358 74.7432 73.3862L73.1237 69.7288L71.5041 66.0713C67.7298 67.7425 64.1382 70.9118 61.5187 74.7001C58.8894 78.5024 56.9959 83.2843 57.125 88.331L61.1237 88.2288ZM73.1237 69.7288L75.1278 73.1905L113.128 51.1904L111.124 47.7287L109.12 44.267L71.1195 66.2671L73.1237 69.7288ZM111.124 47.7287L113.71 50.7797C114.217 50.3501 115.008 49.7096 115.629 49.1276C116.252 48.543 117.121 47.6498 117.693 46.4649C118.35 45.1021 118.568 43.4398 117.925 41.7198C117.358 40.203 116.265 39.0385 115.155 38.1313L112.624 41.2286L110.093 44.3259C110.364 44.5481 110.492 44.689 110.536 44.7437C110.579 44.7964 110.507 44.7228 110.432 44.5212C110.35 44.301 110.293 44.0051 110.316 43.6724C110.338 43.3509 110.427 43.1148 110.487 42.9891C110.542 42.8754 110.574 42.8523 110.513 42.9259C110.453 42.9981 110.344 43.1158 110.158 43.291C109.971 43.4654 109.748 43.6601 109.466 43.8979C109.326 44.0159 109.183 44.1356 109.025 44.2673C108.871 44.3963 108.705 44.535 108.537 44.6777L111.124 47.7287ZM112.624 41.2286L114.615 37.7596L87.6151 22.2597L85.6237 25.7287L83.6322 29.1977L110.632 44.6977L112.624 41.2286ZM85.6237 25.7287L87.6779 22.2965C85.7055 21.116 83.0014 20.2205 79.9803 21.5819L81.6237 25.2287L83.267 28.8755C83.2825 28.8686 83.2501 28.8847 83.1807 28.8943C83.1107 28.9039 83.053 28.9001 83.0245 28.8958C83.0016 28.8923 83.0312 28.8936 83.1244 28.931C83.2203 28.9695 83.3656 29.0389 83.5694 29.1609L85.6237 25.7287ZM81.6237 25.2287L79.6082 21.7736L37.6082 46.2736L39.6237 49.7287L41.6391 53.1838L83.6391 28.6838L81.6237 25.2287ZM39.6237 49.7287L38.0735 46.0413C27.4921 50.4895 22.3145 60.8796 23.132 73.4875L27.1237 73.2287L31.1153 72.9699C30.4619 62.8945 34.4705 56.2341 41.1738 53.4161L39.6237 49.7287ZM27.1237 73.2287H23.1237V149.729H27.1237H31.1237V73.2287H27.1237ZM27.1237 149.729L29.1969 146.308L12.6968 136.308L10.6236 139.729L8.55037 143.15L25.0505 153.15L27.1237 149.729ZM10.6236 139.729L12.3492 136.12C8.60931 134.332 6.93594 132.736 5.97497 131.005C4.92817 129.118 4.40565 126.522 4.11545 121.974L0.123564 122.229L-3.86832 122.483C-3.57023 127.155 -2.99852 131.321 -1.02027 134.886C1.0438 138.606 4.32628 141.151 8.89797 143.337L10.6236 139.729ZM0.123564 122.229H4.12356V55.2287H0.123564H-3.87644V122.229H0.123564ZM0.123564 55.2287L4.10898 54.8874C3.78388 51.091 4.19608 48.956 5.20773 47.2185C6.30216 45.3388 8.41926 43.3599 12.764 40.6078L10.6236 37.2287L8.48312 33.8496C3.88623 36.7614 0.39403 39.5867 -1.70578 43.1931C-3.88837 46.9417 -4.25535 50.9747 -3.86185 55.57L0.123564 55.2287ZM10.6236 37.2287L12.5735 40.7212L72.5735 7.22122L70.6236 3.72871L68.6736 0.236211L8.67358 33.7362L10.6236 37.2287ZM70.6236 3.72871L72.5142 7.25369C77.1738 4.75446 80.0097 3.9613 82.2363 4.00143C84.3769 4.04002 86.558 4.8596 89.9282 7.07239L92.1236 3.72871L94.319 0.385035C90.4795 -2.13591 86.7618 -3.9183 82.3804 -3.99727C78.0849 -4.07469 73.7757 -2.50098 68.7329 0.203737L70.6236 3.72871ZM92.1236 3.72871L90.1544 7.21043L151.154 41.7104L153.124 38.2287L155.093 34.747L94.0927 0.246994L92.1236 3.72871ZM153.124 38.2287L150.896 41.5511C153.741 43.4583 155.211 44.6891 156.04 45.6771C156.719 46.4874 157.005 47.173 157.163 48.2888L161.124 47.7287L165.084 47.1686C164.742 44.7488 163.919 42.623 162.17 40.5366C160.569 38.6279 158.29 36.8765 155.351 34.9063L153.124 38.2287ZM161.124 47.7287H157.124V66.2286H161.124H165.124V47.7287H161.124ZM161.124 66.2286L157.3 65.0554C156.772 66.7747 156.297 67.4922 155.896 67.9255C155.438 68.4192 154.779 68.8744 153.233 69.7034L155.124 73.2286L157.014 76.7539C158.616 75.8949 160.324 74.9161 161.762 73.3647C163.256 71.753 164.208 69.8145 164.948 67.4018L161.124 66.2286ZM155.124 73.2286L153.193 69.7253L104.193 96.7252L106.124 100.229L108.054 103.732L157.054 76.732L155.124 73.2286ZM106.124 100.229L104.083 96.7883C101.814 98.1339 100.817 100.364 100.391 102.111C99.9566 103.896 99.9664 105.74 100.155 107.231L104.124 106.729L108.092 106.226C107.991 105.428 108.018 104.605 108.164 104.004C108.32 103.365 108.467 103.489 108.164 103.669L106.124 100.229ZM104.124 106.729H100.124V135.229H104.124H108.124V106.729H104.124ZM104.124 135.229L100.127 135.396C100.166 136.325 100.271 137.406 100.6 138.421C100.932 139.447 101.662 140.899 103.288 141.753C104.895 142.596 106.509 142.397 107.586 142.094C108.669 141.789 109.729 141.24 110.706 140.644L108.624 137.229L106.541 133.814C106.199 134.022 105.933 134.166 105.731 134.263C105.631 134.311 105.555 134.343 105.501 134.364C105.446 134.386 105.42 134.393 105.42 134.393C105.421 134.393 105.43 134.39 105.446 134.387C105.463 134.383 105.489 134.378 105.523 134.373C105.591 134.363 105.7 134.352 105.842 134.356C106.142 134.364 106.561 134.436 107.007 134.669C107.95 135.165 108.201 135.928 108.21 135.954C108.214 135.968 108.148 135.737 108.12 135.061L104.124 135.229ZM92.1236 172.229L90.3348 168.651C89.2126 169.212 87.0565 169.608 83.9716 169.545C81.0122 169.484 77.6621 169.012 74.507 168.261C71.3277 167.505 68.5496 166.515 66.6719 165.517C65.7192 165.011 65.1816 164.599 64.939 164.354C64.6481 164.06 65.1427 164.399 65.1227 165.316L61.1237 165.229L57.1246 165.141C57.0766 167.342 58.269 168.987 59.2518 169.98C60.283 171.022 61.595 171.879 62.9183 172.582C65.5926 174.003 69.0715 175.192 72.6562 176.044C76.2651 176.903 80.1859 177.468 83.8066 177.543C87.3016 177.615 91.0345 177.245 93.9123 175.806L92.1236 172.229ZM108.624 137.229L110.621 140.694L140.121 123.694L138.124 120.229L136.126 116.763L106.626 133.763L108.624 137.229ZM138.124 120.229L140.224 123.633L163.724 109.133L161.624 105.729L159.523 102.325L136.023 116.825L138.124 120.229Z" data-figma-gradient-fill="{&#34;type&#34;:&#34;GRADIENT_DIAMOND&#34;,&#34;stops&#34;:[{&#34;color&#34;:{&#34;r&#34;:0.46329042315483093,&#34;g&#34;:0.54558736085891724,&#34;b&#34;:0.68004429340362549,&#34;a&#34;:1.0},&#34;position&#34;:0.057692307978868484},{&#34;color&#34;:{&#34;r&#34;:0.050980392843484879,&#34;g&#34;:0.10196078568696976,&#34;b&#34;:0.19607843458652496,&#34;a&#34;:1.0},&#34;position&#34;:1.0}],&#34;stopsVar&#34;:[{&#34;color&#34;:{&#34;r&#34;:0.46329042315483093,&#34;g&#34;:0.54558736085891724,&#34;b&#34;:0.68004429340362549,&#34;a&#34;:1.0},&#34;position&#34;:0.057692307978868484},{&#34;color&#34;:{&#34;r&#34;:0.050980392843484879,&#34;g&#34;:0.10196078568696976,&#34;b&#34;:0.19607843458652496,&#34;a&#34;:1.0},&#34;position&#34;:1.0}],&#34;transform&#34;:{&#34;m00&#34;:9.9578243600070143e-15,&#34;m01&#34;:-162.62361145019531,&#34;m02&#34;:162.62361145019531,&#34;m10&#34;:173.55154418945312,&#34;m11&#34;:1.0626967682843703e-14,&#34;m12&#34;:-1.0626967682843703e-14},&#34;opacity&#34;:1.0,&#34;blendMode&#34;:&#34;NORMAL&#34;,&#34;visible&#34;:true}" mask="url(#path-1-outside-1_8_123)"/>
</g>
<defs>
<filter id="filter0_d_8_123" x="-7.99994" y="-4" width="178.627" height="189.552" filterUnits="userSpaceOnUse" color-interpolation-filters="sRGB">
<feFlood flood-opacity="0" result="BackgroundImageFix"/>
<feColorMatrix in="SourceAlpha" type="matrix" values="0 0 0 0 0 0 0 0 0 0 0 0 0 0 0 0 0 0 127 0" result="hardAlpha"/>
<feOffset dy="4"/>
<feGaussianBlur stdDeviation="2"/>
<feComposite in2="hardAlpha" operator="out"/>
<feColorMatrix type="matrix" values="0 0 0 0 0 0 0 0 0 0 0 0 0 0 0 0 0 0 0.25 0"/>
<feBlend mode="normal" in2="BackgroundImageFix" result="effect1_dropShadow_8_123"/>
<feBlend mode="normal" in="SourceGraphic" in2="effect1_dropShadow_8_123" result="shape"/>
</filter>
<clipPath id="paint0_diamond_8_123_clip_path"><path d="M161.624 105.729L165.618 105.518L165.264 98.7826L159.523 102.325L161.624 105.729ZM162.624 124.729L166.621 124.876L166.627 124.697L166.618 124.518L162.624 124.729ZM154.624 137.729L156.577 141.219L156.861 141.061L157.115 140.858L154.624 137.729ZM61.1237 165.229L65.1227 165.316L65.1237 165.272V165.229H61.1237ZM61.1237 88.2288H65.1237V88.1776L65.1224 88.1265L61.1237 88.2288ZM73.1237 69.7288L74.7432 73.3862L74.9408 73.2987L75.1278 73.1905L73.1237 69.7288ZM111.124 47.7287L113.128 51.1904L113.438 51.0111L113.71 50.7797L111.124 47.7287ZM112.624 41.2286L115.155 38.1313L114.9 37.9233L114.615 37.7596L112.624 41.2286ZM85.6237 25.7287L83.5694 29.1609L83.6006 29.1796L83.6322 29.1977L85.6237 25.7287ZM81.6237 25.2287L79.9803 21.5819L79.7892 21.668L79.6082 21.7736L81.6237 25.2287ZM39.6237 49.7287L41.1738 53.4161L41.414 53.3151L41.6391 53.1838L39.6237 49.7287ZM27.1237 73.2287H31.1237V73.0992L31.1153 72.9699L27.1237 73.2287ZM27.1237 149.729L25.0505 153.15L31.1237 156.83V149.729H27.1237ZM10.6236 139.729L12.6968 136.308L12.5276 136.205L12.3492 136.12L10.6236 139.729ZM0.123564 122.229H-3.87644V122.356L-3.86832 122.483L0.123564 122.229ZM0.123564 55.2287H4.12356V55.0578L4.10898 54.8874L0.123564 55.2287ZM10.6236 37.2287L8.67358 33.7362L8.57678 33.7903L8.48312 33.8496L10.6236 37.2287ZM70.6236 3.72871L68.7329 0.203737L68.7031 0.219724L68.6736 0.236211L70.6236 3.72871ZM92.1236 3.72871L89.9282 7.07239L90.039 7.14516L90.1544 7.21043L92.1236 3.72871ZM153.124 38.2287L155.351 34.9063L155.225 34.8218L155.093 34.747L153.124 38.2287ZM161.124 47.7287H165.124V47.4473L165.084 47.1686L161.124 47.7287ZM161.124 66.2286L164.948 67.4018L165.124 66.8284V66.2286H161.124ZM155.124 73.2286L153.233 69.7034L153.213 69.7142L153.193 69.7253L155.124 73.2286ZM106.124 100.229L104.193 96.7252L104.137 96.7559L104.083 96.7883L106.124 100.229ZM104.124 106.729H108.124V106.476L108.092 106.226L104.124 106.729ZM104.124 135.229H100.124V135.313L100.127 135.396L104.124 135.229ZM108.624 137.229L106.626 133.763L106.583 133.788L106.541 133.814L108.624 137.229ZM138.124 120.229L140.121 123.694L140.173 123.664L140.224 123.633L138.124 120.229ZM161.624 105.729L157.629 105.939L158.629 124.939L162.624 124.729L166.618 124.518L165.618 105.518L161.624 105.729ZM162.624 124.729L158.626 124.582C158.536 127.041 158.04 128.458 157.235 129.672C156.322 131.051 154.832 132.45 152.132 134.599L154.624 137.729L157.115 140.858C159.827 138.699 162.226 136.623 163.904 134.091C165.691 131.395 166.489 128.467 166.621 124.876L162.624 124.729ZM154.624 137.729C152.67 134.238 152.67 134.238 152.67 134.238C152.669 134.239 152.669 134.239 152.668 134.24C152.666 134.24 152.664 134.242 152.66 134.244C152.654 134.247 152.644 134.253 152.631 134.26C152.605 134.275 152.566 134.297 152.514 134.326C152.411 134.383 152.257 134.469 152.057 134.581C151.656 134.805 151.067 135.135 150.314 135.556C148.809 136.397 146.65 137.604 144.033 139.064C138.8 141.985 131.74 145.921 124.431 149.982C109.75 158.139 94.234 166.702 90.3348 168.651L92.1236 172.229L93.9123 175.806C98.0132 173.756 113.748 165.069 128.316 156.975C135.632 152.911 142.697 148.972 147.933 146.05C150.551 144.588 152.712 143.381 154.218 142.539C154.971 142.117 155.561 141.788 155.962 141.563C156.163 141.451 156.317 141.365 156.42 141.307C156.472 141.278 156.511 141.256 156.537 141.242C156.55 141.234 156.56 141.229 156.567 141.225C156.57 141.223 156.573 141.222 156.575 141.221C156.575 141.22 156.576 141.22 156.576 141.22C156.577 141.219 156.577 141.219 154.624 137.729ZM61.1237 165.229H65.1237V88.2288H61.1237H57.1237V165.229H61.1237ZM61.1237 88.2288L65.1224 88.1265C65.0472 85.1872 66.1692 82.0405 68.0987 79.2502C70.038 76.4457 72.5485 74.358 74.7432 73.3862L73.1237 69.7288L71.5041 66.0713C67.7298 67.7425 64.1382 70.9118 61.5187 74.7001C58.8894 78.5024 56.9959 83.2843 57.125 88.331L61.1237 88.2288ZM73.1237 69.7288L75.1278 73.1905L113.128 51.1904L111.124 47.7287L109.12 44.267L71.1195 66.2671L73.1237 69.7288ZM111.124 47.7287L113.71 50.7797C114.217 50.3501 115.008 49.7096 115.629 49.1276C116.252 48.543 117.121 47.6498 117.693 46.4649C118.35 45.1021 118.568 43.4398 117.925 41.7198C117.358 40.203 116.265 39.0385 115.155 38.1313L112.624 41.2286L110.093 44.3259C110.364 44.5481 110.492 44.689 110.536 44.7437C110.579 44.7964 110.507 44.7228 110.432 44.5212C110.35 44.301 110.293 44.0051 110.316 43.6724C110.338 43.3509 110.427 43.1148 110.487 42.9891C110.542 42.8754 110.574 42.8523 110.513 42.9259C110.453 42.9981 110.344 43.1158 110.158 43.291C109.971 43.4654 109.748 43.6601 109.466 43.8979C109.326 44.0159 109.183 44.1356 109.025 44.2673C108.871 44.3963 108.705 44.535 108.537 44.6777L111.124 47.7287ZM112.624 41.2286L114.615 37.7596L87.6151 22.2597L85.6237 25.7287L83.6322 29.1977L110.632 44.6977L112.624 41.2286ZM85.6237 25.7287L87.6779 22.2965C85.7055 21.116 83.0014 20.2205 79.9803 21.5819L81.6237 25.2287L83.267 28.8755C83.2825 28.8686 83.2501 28.8847 83.1807 28.8943C83.1107 28.9039 83.053 28.9001 83.0245 28.8958C83.0016 28.8923 83.0312 28.8936 83.1244 28.931C83.2203 28.9695 83.3656 29.0389 83.5694 29.1609L85.6237 25.7287ZM81.6237 25.2287L79.6082 21.7736L37.6082 46.2736L39.6237 49.7287L41.6391 53.1838L83.6391 28.6838L81.6237 25.2287ZM39.6237 49.7287L38.0735 46.0413C27.4921 50.4895 22.3145 60.8796 23.132 73.4875L27.1237 73.2287L31.1153 72.9699C30.4619 62.8945 34.4705 56.2341 41.1738 53.4161L39.6237 49.7287ZM27.1237 73.2287H23.1237V149.729H27.1237H31.1237V73.2287H27.1237ZM27.1237 149.729L29.1969 146.308L12.6968 136.308L10.6236 139.729L8.55037 143.15L25.0505 153.15L27.1237 149.729ZM10.6236 139.729L12.3492 136.12C8.60931 134.332 6.93594 132.736 5.97497 131.005C4.92817 129.118 4.40565 126.522 4.11545 121.974L0.123564 122.229L-3.86832 122.483C-3.57023 127.155 -2.99852 131.321 -1.02027 134.886C1.0438 138.606 4.32628 141.151 8.89797 143.337L10.6236 139.729ZM0.123564 122.229H4.12356V55.2287H0.123564H-3.87644V122.229H0.123564ZM0.123564 55.2287L4.10898 54.8874C3.78388 51.091 4.19608 48.956 5.20773 47.2185C6.30216 45.3388 8.41926 43.3599 12.764 40.6078L10.6236 37.2287L8.48312 33.8496C3.88623 36.7614 0.39403 39.5867 -1.70578 43.1931C-3.88837 46.9417 -4.25535 50.9747 -3.86185 55.57L0.123564 55.2287ZM10.6236 37.2287L12.5735 40.7212L72.5735 7.22122L70.6236 3.72871L68.6736 0.236211L8.67358 33.7362L10.6236 37.2287ZM70.6236 3.72871L72.5142 7.25369C77.1738 4.75446 80.0097 3.9613 82.2363 4.00143C84.3769 4.04002 86.558 4.8596 89.9282 7.07239L92.1236 3.72871L94.319 0.385035C90.4795 -2.13591 86.7618 -3.9183 82.3804 -3.99727C78.0849 -4.07469 73.7757 -2.50098 68.7329 0.203737L70.6236 3.72871ZM92.1236 3.72871L90.1544 7.21043L151.154 41.7104L153.124 38.2287L155.093 34.747L94.0927 0.246994L92.1236 3.72871ZM153.124 38.2287L150.896 41.5511C153.741 43.4583 155.211 44.6891 156.04 45.6771C156.719 46.4874 157.005 47.173 157.163 48.2888L161.124 47.7287L165.084 47.1686C164.742 44.7488 163.919 42.623 162.17 40.5366C160.569 38.6279 158.29 36.8765 155.351 34.9063L153.124 38.2287ZM161.124 47.7287H157.124V66.2286H161.124H165.124V47.7287H161.124ZM161.124 66.2286L157.3 65.0554C156.772 66.7747 156.297 67.4922 155.896 67.9255C155.438 68.4192 154.779 68.8744 153.233 69.7034L155.124 73.2286L157.014 76.7539C158.616 75.8949 160.324 74.9161 161.762 73.3647C163.256 71.753 164.208 69.8145 164.948 67.4018L161.124 66.2286ZM155.124 73.2286L153.193 69.7253L104.193 96.7252L106.124 100.229L108.054 103.732L157.054 76.732L155.124 73.2286ZM106.124 100.229L104.083 96.7883C101.814 98.1339 100.817 100.364 100.391 102.111C99.9566 103.896 99.9664 105.74 100.155 107.231L104.124 106.729L108.092 106.226C107.991 105.428 108.018 104.605 108.164 104.004C108.32 103.365 108.467 103.489 108.164 103.669L106.124 100.229ZM104.124 106.729H100.124V135.229H104.124H108.124V106.729H104.124ZM104.124 135.229L100.127 135.396C100.166 136.325 100.271 137.406 100.6 138.421C100.932 139.447 101.662 140.899 103.288 141.753C104.895 142.596 106.509 142.397 107.586 142.094C108.669 141.789 109.729 141.24 110.706 140.644L108.624 137.229L106.541 133.814C106.199 134.022 105.933 134.166 105.731 134.263C105.631 134.311 105.555 134.343 105.501 134.364C105.446 134.386 105.42 134.393 105.42 134.393C105.421 134.393 105.43 134.39 105.446 134.387C105.463 134.383 105.489 134.378 105.523 134.373C105.591 134.363 105.7 134.352 105.842 134.356C106.142 134.364 106.561 134.436 107.007 134.669C107.95 135.165 108.201 135.928 108.21 135.954C108.214 135.968 108.148 135.737 108.12 135.061L104.124 135.229ZM92.1236 172.229L90.3348 168.651C89.2126 169.212 87.0565 169.608 83.9716 169.545C81.0122 169.484 77.6621 169.012 74.507 168.261C71.3277 167.505 68.5496 166.515 66.6719 165.517C65.7192 165.011 65.1816 164.599 64.939 164.354C64.6481 164.06 65.1427 164.399 65.1227 165.316L61.1237 165.229L57.1246 165.141C57.0766 167.342 58.269 168.987 59.2518 169.98C60.283 171.022 61.595 171.879 62.9183 172.582C65.5926 174.003 69.0715 175.192 72.6562 176.044C76.2651 176.903 80.1859 177.468 83.8066 177.543C87.3016 177.615 91.0345 177.245 93.9123 175.806L92.1236 172.229ZM108.624 137.229L110.621 140.694L140.121 123.694L138.124 120.229L136.126 116.763L106.626 133.763L108.624 137.229ZM138.124 120.229L140.224 123.633L163.724 109.133L161.624 105.729L159.523 102.325L136.023 116.825L138.124 120.229Z" mask="url(#path-1-outside-1_8_123)"/></clipPath><linearGradient id="paint0_diamond_8_123" x1="0" y1="0" x2="500" y2="500" gradientUnits="userSpaceOnUse">
<stop offset="0.0576923" stop-color="#768BAD"/>
<stop offset="1" stop-color="#0D1A32"/>
</linearGradient>
</defs>
</svg>
